# xmcd
#
# Track frame offsets: 
#        150
#        10268
#        23875
#        39613
#        47405
#        64210
#        73078
#        80035
#        96303
#        106493
#        120323
#        135453
#        144233
#        160938
#        173258
#        182383
#        198000
#
# Disc length: 2785 seconds
#
# Revision: 1
# Processed by: cddbd v1.5.2PL0 Copyright (c) Steve Scherf et al.
# Submitted via: ExactAudioCopy v0.95a5
#
DISCID=d60adf11
DTITLE=Mississippi John Hurt - "Last Sessions"
DYEAR=1972
DGENRE=Blues
TTITLE0=Poor Boy, Long Ways From Home
TTITLE1=Boys You're Welcome
TTITLE2=Joe Turner Blues
TTITLE3=First Shot Missed Him
TTITLE4=Farther Along
TTITLE5=Funky Butt
TTITLE6=Spider, Spider
TTITLE7=Waiting For You
TTITLE8=Shortnin' Bread
TTITLE9=Trouble, I've Had It All My Days
TTITLE10=Let The Mermaids Flirt With Me
TTITLE11=Good Morning, Carrie
TTITLE12=Nobody Cares For Me
TTITLE13=All Night Long
TTITLE14=Hey, Honey, Right Away
TTITLE15=You've Got To Die
TTITLE16=Goodnight Irene
EXTD=Released on Vanguard Records \nVMD 79327 in 1972
EXTT0=
EXTT1=
EXTT2=
EXTT3=
EXTT4=
EXTT5=
EXTT6=
EXTT7=
EXTT8=
EXTT9=
EXTT10=
EXTT11=
EXTT12=
EXTT13=
EXTT14=
EXTT15=
EXTT16=
PLAYORDER=
